<?xml version="1.0" encoding="utf-8"?>
<!-- Generator: Adobe Illustrator 27.5.0, SVG Export Plug-In . SVG Version: 6.00 Build 0)  -->
<svg version="1.1" xmlns="http://www.w3.org/2000/svg" xmlns:xlink="http://www.w3.org/1999/xlink" x="0px" y="0px"
	 viewBox="0 0 1122 1122" style="enable-background:new 0 0 1122 1122;" xml:space="preserve">
<g id="Bg">
	<rect style="fill:#FFFFFF;" width="1122" height="1122"/>
</g>
<g id="Object">
	<g>
		<path d="M884.516,351.372c-49.29-49.308-114.842-76.465-184.584-76.465c-69.727,0-135.277,27.157-184.582,76.465
			c-4.193,4.185-4.193,10.982,0,15.172c4.189,4.186,10.978,4.186,15.17,0c45.255-45.257,105.42-70.182,169.412-70.182
			c64.003,0,124.168,24.925,169.412,70.18c2.097,2.094,4.84,3.14,7.588,3.14c2.741,0,5.487-1.046,7.584-3.138
			C888.703,362.354,888.703,355.567,884.516,351.372z"/>
		<path d="M586.214,422.232c30.38-30.369,70.763-47.097,113.718-47.097c42.956,0,83.343,16.728,113.722,47.102
			c2.09,2.092,4.832,3.14,7.586,3.14c2.741,0,5.485-1.048,7.582-3.14c4.193-4.19,4.193-10.987,0-15.175
			c-34.427-34.424-80.202-53.383-128.89-53.383c-48.692,0-94.465,18.959-128.881,53.383c-4.192,4.192-4.185,10.985,0,15.175
			C575.238,426.424,582.031,426.428,586.214,422.232z"/>
		<path d="M622.613,471.626h-0.869c0.23,0.599,0.522,1.174,0.869,1.728V471.626z"/>
		<path d="M686.326,515.164c0,8.517,6.893,15.424,15.404,15.424c8.507,0,15.413-6.907,15.413-15.424
			c0-8.506-6.905-15.405-15.413-15.405C693.219,499.759,686.326,506.658,686.326,515.164z"/>
		<path d="M382.123,564.453h191.269c6.214,0,11.253-5.04,11.253-11.257c0-6.208-5.039-11.248-11.253-11.248H382.123
			c-6.214,0-11.245,5.04-11.245,11.248C370.879,559.413,375.909,564.453,382.123,564.453z"/>
		<path d="M584.646,629.843c0-6.211-5.039-11.248-11.253-11.248H382.123c-6.214,0-11.245,5.037-11.245,11.248
			c0,6.215,5.03,11.256,11.245,11.256h191.269C579.607,641.099,584.646,636.058,584.646,629.843z"/>
		<path d="M858.351,841.792l-147.168-87.089V589.297c0-6.217-5.039-11.254-11.251-11.254h-54.815V470.057h-0.007
			c15.377-12.833,34.558-19.836,54.821-19.836c22.895,0,44.42,8.923,60.613,25.115c2.103,2.096,4.842,3.144,7.586,3.144
			c2.748,0,5.493-1.048,7.59-3.144c4.189-4.186,4.189-10.98,0-15.175c-20.244-20.246-47.166-31.394-75.789-31.394
			c-23.108,0-45.09,7.27-63.365,20.721c-0.873-0.212-1.767-0.364-2.703-0.364H327.279c-6.212,0-11.253,5.039-11.253,11.254v117.663
			h-70.426c-6.212,0-11.255,5.037-11.255,11.254v312.208c0,6.215,5.043,11.256,11.255,11.256h2.01h0.038h0.038H670.32l10.099,53.853
			c1.86,9.891,10.277,17.07,20.016,17.07c7.535,0,14.108-4.497,16.873-11.489l21.849-47.008l34.598,49.407
			c6.886,9.819,18.161,15.684,30.16,15.684c7.569,0,14.863-2.297,21.098-6.655c16.609-11.648,20.661-34.639,9.027-51.244
			l-34.862-49.789l51.719-4.222c8.119-0.19,14.958-5.53,17.121-13.419C870.435,856.113,866.459,846.586,858.351,841.792z
			 M645.117,600.543h25.617l-25.617,20.142V600.543z M688.677,615.055v126.329l-21.316-12.622c-3.014-1.771-6.425-2.71-9.879-2.71
			c-5.529,0-10.67,2.368-14.094,6.504c-3.563,4.298-4.984,10.04-3.906,15.742l12.384,66.054l-77.592-109.328L688.677,615.055z
			 M338.527,646.02V471.626h283.208h0.008h0.865v1.728l0.004,0.008v157.19c0,2.341,0.712,4.504,1.94,6.309l-67.482,53.068
			l-10.074,7.918l-69.021,54.272L338.392,647.42C338.443,646.965,338.527,646.501,338.527,646.02z M316.026,600.543v30.108
			l-40.142-30.108H316.026z M256.846,614.399l117.985,88.49L256.846,869.113V614.399z M269.435,890.258l123.402-173.865
			l78.553,58.917c2.004,1.501,4.375,2.245,6.751,2.245c2.46,0,4.916-0.801,6.958-2.405l71.466-56.203l105.208,148.238l4.327,23.073
			H269.435z M780.062,863.98c-3.589,0.291-6.751,2.486-8.281,5.739c-1.53,3.268-1.205,7.097,0.865,10.046l44.917,64.153
			c5.284,7.531,3.441,17.954-4.092,23.234c-2.822,1.977-6.121,3.023-9.556,3.023c-5.451,0-10.562-2.665-13.688-7.121l-44.604-63.682
			c-1.89-2.7-4.971-4.284-8.233-4.284l-0.881,0.037c-3.587,0.316-6.717,2.524-8.241,5.779l-28.291,60.88l-9.199-49.023l-1.196-6.4
			l-3.023-16.104l-6.888-36.731l-19.851-105.85l28.857,17.076l22.506,13.321l135.93,80.435L780.062,863.98z"/>
	</g>
</g>
</svg>
